<svg version="1" xmlns="http://www.w3.org/2000/svg" width="569.333" height="569.333" viewBox="0 0 427.000000 427.000000"><path d="M212.8 33.8c-1.6.3-1.7 2.6-1.5 27.5l.2 27.2h9l.2-27.3c.2-20.7-.1-27.2-1-27.3-.7 0-2.1-.2-3.2-.3-1.1-.1-2.8 0-3.7.2zM117 58.7c-1.9.9-3.7 1.8-3.9 2-.2.1 3.6 5.5 8.5 12s9.1 12.2 9.3 12.8c.2.5.7 1.2 1 1.5 1.2.9 14 18.1 14.3 19.2.4 1 8.8-2.5 8.8-3.7 0-.5-9-12.7-10-13.5-.3-.3-1.6-2.2-2.9-4.3-1.2-2-2.6-3.7-3.1-3.7s-1.1-.8-1.4-1.8c-.3-.9-1.6-2.9-2.8-4.3-1.3-1.5-4.8-6.1-7.8-10.3-3-4.1-5.7-7.5-6-7.5-.3-.1-2.1.7-4 1.6zM305 64.7c-3 4.1-6 8.1-6.5 8.7-.6.6-2.8 3.6-5 6.6-2.2 3-4.5 6.2-5.2 7-.7.8-3.5 4.6-6.4 8.4l-5.1 6.9 2.4 1.8c4.6 3.5 5.4 3.1 12-5.7 3.5-4.6 10.3-13.7 15.2-20.2 4.8-6.4 9.7-12.9 10.7-14.4l1.9-2.6-3.4-2.1c-1.8-1.2-3.7-2.1-4.2-2.1s-3.4 3.5-6.4 7.7zM206.5 103.6c-1.1.3-4.7 1-8 1.6-3.3.6-9.4 2.6-13.6 4.3-25.2 10.5-42.8 30.9-49.5 57.4-2.5 9.6-3.4 23.3-2 31.1.4 1.9.9 4.8 1.2 6.5.3 1.6 1.5 5.9 2.6 9.5 2.2 6.8 4 10.3 16.6 33 19.3 34.9 23.3 43.8 24.7 56.5.4 3.3 1.2 6.5 1.7 7.2.7.8 10.5 1.2 36.8 1.2 41 .1 36.9 1.2 38.4-10.4.3-2.2.7-4.7.9-5.5 2.3-9.2 5.6-17.3 10.6-25.8 1.5-2.6 4.5-7.9 6.5-11.7 2.1-3.9 5.2-9.5 6.9-12.5 12.4-22.4 14.8-27.3 17.2-35.4 2.9-9.5 3.9-26.3 2.2-37.6-2-14.3-10.9-31.8-22.1-43.8-9.1-9.8-26.7-20.2-39.1-23.2-2.7-.6-5.9-1.4-7-1.7-2.5-.7-22.3-1.2-25-.7zM49.3 125.5c-2.7 4.1-2.7 4.1 10.2 9 5.5 2.1 11.4 4.3 13 5 14.7 6.1 19.2 7.8 20.3 7.8.6 0 1.2.4 1.2.9 0 .4.8.8 1.8.8s2.2.3 2.6.7c.3.4 1.2.8 1.9.9.7.2 2.1.6 3.3.9 1.7.5 2.4 0 3.7-2.7.9-1.8 1.3-3.6.9-4-.6-.6-33.5-13.8-43.2-17.3-1.9-.7-5.8-2.2-8.5-3.3l-5.1-2-2.1 3.3zM357.5 131.1c-12.7 5-23.9 9.4-25 9.9-1.1.5-3.7 1.6-5.7 2.4-3 1.2-3.6 1.9-3.1 3.3 1.1 3.1 4 6.2 4.9 5.4.5-.5 7-3.2 14.4-6 7.4-2.9 14.9-5.8 16.5-6.5 1.7-.7 8-3.2 14.2-5.6l11.2-4.2-1.4-2.7c-.8-1.4-1.8-3.1-2.2-3.8-.6-.8-7.3 1.4-23.8 7.8zM90.8 202.5c-.4.3-9.6 1.5-15.8 2-2.5.3-6.1.7-8 1-1.9.3-5.1.7-7 1-7.8.9-13.6 1.6-15.5 2-1.1.2-3.3.4-5 .4-4.7.2-5.7 1.3-5 5.4.7 3.5.8 3.6 4.9 3.2 2.2-.3 5.1-.7 6.4-1 1.3-.2 5.3-.7 9-1.1 3.6-.3 7.5-.8 8.5-1 1.1-.2 4.5-.6 7.6-.9 3.1-.4 6.7-.8 8.1-1 1.4-.2 5-.7 8-1 11.4-1.2 11.9-1.5 10.4-7.2-.4-1.6-1.3-2.1-3.5-2.1-1.6.1-3 .2-3.1.3zM334.4 205.5c-.3 2-.4 3.8-.1 4.1.5.5 7.4 1.6 19.2 2.9 2.8.3 8.2 1 12 1.5 3.9.6 9.3 1.2 12 1.5 5.4.5 11.2 1.2 16.3 2 2.5.4 3.2.1 3.3-1.3 0-.9.2-2.7.5-3.9.5-2.8.2-3-7.7-3.7-3.6-.4-7.6-.9-9-1.1-1.3-.2-4.9-.7-7.9-1-3-.3-6.8-.8-8.5-1-1.6-.3-5.3-.7-8-.9-2.8-.3-6.2-.7-7.5-1-1.4-.3-5.1-.8-8.2-1.1l-5.7-.6-.7 3.6zM119.2 257.7c-1 1-4 3.4-6.8 5.2-2.7 1.9-5.1 3.8-5.4 4.1-.3.3-3.9 3-8 6-4.1 2.9-8 5.9-8.7 6.4-.6.6-4.3 3.3-8.2 6.1-3.9 2.7-7 5.4-7 6-.1 1.7 4.8 5.8 6.2 5.2 2.5-1.1 46.6-34 46.7-34.8 0-1-4.9-5.9-6-5.9-.5 0-1.8.8-2.8 1.7zM306.2 258.4c-2.1 2.1-2.2 2.6-1 4.5.7 1.1 1.8 2.1 2.5 2.1.6 0 1.3.3 1.5.7.5 1.2 16.7 13.3 17.8 13.3.4 0 1 .4 1.2.8.2.5 3.9 3.5 8.3 6.7s8.2 6.1 8.5 6.5c.7.8 5.8 4 6.4 4 .9 0 5.6-4.7 5.6-5.6-.1-.5-7.8-6.5-17.2-13.4-9.4-6.9-17.6-13-18.2-13.5-2.4-2.2-11.6-8.5-12.4-8.4-.4 0-1.8 1.1-3 2.3zM179.9 319.9c-.7 7.4 1.3 12.1 5.3 12.1 2.1 0 2.2.4.6 3-1 1.5-1 2.5-.2 3.8.8 1.2.8 2.2 0 3.5-.8 1.2-.8 2.2 0 3.5.9 1.4.8 2.2-.2 3.6-1.1 1.5-1 2.2.3 4.2.8 1.3 1.1 2.4.5 2.4-1.6 0-2.1 3.8-.6 5.1.8.6 1.4 2 1.4 3 0 3.4 2.3 6.8 5.4 8.2 2.4 1.1 8.2 1.4 25.6 1.3 19.8-.1 22.9-.3 25.3-1.9 1.5-.9 2.7-2.1 2.7-2.6 0-.4.9-1.8 2-3.1 2.4-2.8 2.5-3.4.5-5-1.4-1.2-1.4-1.5.1-3.1 1.2-1.4 1.3-2.2.4-3.8-.8-1.5-.8-2.7 0-4.2.9-1.6.8-2.4-.3-3.7-1.3-1.4-1.3-1.9-.2-2.9 1.3-1.2.9-5.3-.5-5.3-.4 0-.7-1.4-.6-3 .1-2.7.7-3.5 2-2.8.3.2 1.5-.7 2.9-2 1.8-1.7 2.4-3.3 2.4-7.1l.1-4.8h-37.4c-33.4 0-37.4.2-37.5 1.6zM203.2 379.2c2.5 3.5 8.9 6.7 13.6 6.8 5.6 0 13-3.9 15.2-8 .7-1.4-1-1.6-15.1-1.7l-15.9-.1 2.2 3z"/></svg>